<?xml version="1.0" standalone="no"?>
<!DOCTYPE svg PUBLIC "-//W3C//DTD SVG 20010904//EN"
 "http://www.w3.org/TR/2001/REC-SVG-20010904/DTD/svg10.dtd">
<svg version="1.0" xmlns="http://www.w3.org/2000/svg"
 width="512.000000pt" height="512.000000pt" viewBox="0 0 512.000000 512.000000"
 preserveAspectRatio="xMidYMid meet">
<metadata>
Created by potrace 1.14, written by Peter Selinger 2001-2017
</metadata>
<g transform="translate(0.000000,512.000000) scale(0.100000,-0.100000)"
fill="#000000" stroke="none">
<path d="M3930 3691 c-305 -32 -540 -181 -654 -415 -62 -127 -77 -195 -83
-366 -4 -122 -2 -160 16 -240 53 -245 213 -440 437 -533 131 -55 225 -70 419
-71 110 0 203 5 240 12 103 22 256 72 261 85 7 18 -139 358 -151 353 -135 -61
-135 -61 -270 -60 -116 0 -137 3 -199 27 -191 75 -279 220 -263 435 7 103 37
180 97 245 88 96 201 140 365 140 103 1 158 -10 233 -45 23 -11 44 -19 47 -17
6 7 145 338 145 348 0 18 -167 72 -280 90 -95 15 -274 21 -360 12z"/>
<path d="M542 2538 l3 -1113 247 -3 248 -2 2 752 3 753 114 -375 c62 -206 153
-505 201 -665 48 -159 100 -329 114 -378 l27 -87 186 2 187 3 235 747 c130
410 239 750 244 754 4 4 7 -333 7 -749 l0 -757 245 0 245 0 0 1115 0 1115
-354 0 -355 0 -131 -402 c-200 -614 -270 -828 -287 -883 -28 -90 7 -178 -283
720 -84 259 -159 491 -167 518 l-15 47 -359 0 -359 0 2 -1112z"/>
<path d="M3310 1625 l0 -195 600 0 600 0 0 195 0 195 -600 0 -600 0 0 -195z"/>
</g>
</svg>
